<?xml version="1.0" standalone="no"?>
<!DOCTYPE svg PUBLIC "-//W3C//DTD SVG 20010904//EN"
 "http://www.w3.org/TR/2001/REC-SVG-20010904/DTD/svg10.dtd">
<svg version="1.0" xmlns="http://www.w3.org/2000/svg"
 width="510.000000pt" height="510.000000pt" viewBox="0 0 510.000000 510.000000"
 preserveAspectRatio="xMidYMid meet">

<g transform="translate(0.000000,510.000000) scale(0.100000,-0.100000)"
fill="#5f8f55" stroke="none">
<path d="M2485 4896 c-17 -19 -50 -70 -73 -114 -23 -44 -73 -130 -112 -192
-101 -163 -114 -201 -114 -335 0 -97 5 -129 44 -275 34 -130 43 -184 44 -255
l1 -90 -43 -3 c-145 -11 -347 101 -423 232 -40 71 -39 126 6 225 43 97 52 146
32 193 -13 30 -21 36 -56 42 -22 3 -62 1 -88 -4 -91 -21 -145 -69 -195 -175
-32 -68 -33 -74 -33 -195 l0 -125 43 -81 c75 -142 161 -221 362 -334 120 -67
180 -108 180 -121 0 -6 -29 -41 -65 -78 -64 -66 -72 -81 -165 -288 -13 -29
-26 -53 -29 -53 -4 0 -14 36 -23 79 -59 289 -278 565 -527 666 -166 68 -348
45 -395 -49 -16 -32 -17 -44 -7 -75 15 -50 61 -75 181 -95 159 -27 167 -31
250 -115 119 -121 189 -280 178 -403 -3 -27 -10 -54 -15 -59 -17 -17 -138 10
-278 61 -153 57 -190 67 -270 75 -109 12 -170 -7 -412 -126 -212 -104 -273
-145 -273 -182 0 -30 45 -79 117 -129 43 -30 113 -80 156 -110 42 -31 103 -66
135 -79 86 -33 245 -36 452 -10 202 26 322 28 344 5 30 -29 14 -150 -34 -251
-53 -114 -158 -202 -267 -222 -38 -8 -72 -5 -148 10 -125 24 -136 24 -169 -2
-22 -18 -26 -28 -26 -76 0 -75 30 -115 119 -156 56 -27 80 -32 161 -35 280
-11 517 162 679 497 21 44 44 95 50 113 l12 33 21 -35 c47 -78 110 -170 181
-265 41 -55 73 -103 71 -107 -2 -4 -39 -26 -82 -49 -221 -121 -315 -224 -343
-376 -18 -94 -6 -334 21 -418 40 -126 125 -175 184 -105 33 40 44 81 56 215
29 307 42 358 110 419 44 40 99 52 189 43 49 -5 60 -10 88 -43 71 -81 94 -229
73 -470 -18 -207 -16 -402 4 -488 23 -97 80 -200 152 -273 65 -66 155 -117
196 -111 32 4 27 47 -11 101 -84 117 -115 371 -65 537 9 30 43 113 75 184 73
156 86 205 99 361 11 139 19 167 54 190 30 20 68 14 140 -22 60 -30 159 -122
179 -166 9 -18 23 -96 32 -175 19 -172 43 -257 84 -296 26 -25 35 -28 76 -24
93 11 126 75 133 260 3 80 0 151 -8 190 -30 157 -129 269 -363 417 l-148 93
48 52 c26 29 69 78 94 109 61 74 108 113 113 95 3 -7 12 -36 20 -63 53 -167
258 -383 413 -434 219 -72 541 -34 645 76 79 83 77 247 -3 288 -52 27 -76 20
-137 -44 -69 -70 -103 -79 -215 -56 -130 27 -282 121 -359 222 -47 62 -59 95
-59 159 0 120 49 193 146 215 74 16 135 2 264 -61 268 -131 606 -116 756 35
71 70 124 215 80 215 -9 0 -52 -19 -97 -41 -71 -36 -96 -43 -185 -52 -125 -13
-250 1 -326 36 -29 13 -87 54 -130 91 -100 84 -135 102 -253 126 -122 24 -146
39 -137 83 15 81 46 143 97 193 63 62 122 84 221 84 89 0 152 -18 221 -64 64
-43 124 -48 164 -15 22 19 25 29 25 88 0 81 -21 128 -87 193 -91 89 -204 124
-368 115 -177 -11 -322 -69 -422 -169 -45 -45 -70 -84 -123 -195 -94 -192 -86
-185 -123 -121 -16 29 -71 104 -121 166 -50 62 -91 114 -91 117 0 2 64 35 143
74 168 82 251 136 322 207 138 137 178 323 111 514 -65 187 -187 282 -304 235
l-42 -17 0 -58 c0 -33 11 -96 26 -146 40 -138 42 -183 10 -248 -32 -65 -93
-114 -194 -156 -74 -31 -199 -60 -260 -60 -36 0 -40 2 -50 39 -21 69 -14 150
29 322 85 345 75 431 -78 675 -28 44 -66 109 -83 145 -54 106 -87 138 -144
139 -20 0 -38 -10 -61 -34z m347 -1859 c41 -41 97 -133 112 -184 6 -19 2 -23
-34 -33 -22 -6 -71 -10 -108 -8 -93 4 -99 17 -81 178 l13 119 27 -14 c15 -8
47 -34 71 -58z m-487 22 c4 -17 4 -87 0 -155 -7 -123 -8 -126 -34 -136 -36
-13 -134 -13 -160 2 -28 15 -23 48 24 146 32 66 127 174 154 174 5 0 12 -14
16 -31z m676 -629 c36 0 37 -15 3 -86 -45 -96 -178 -220 -258 -240 l-26 -6 0
156 c0 126 3 158 14 162 28 11 152 22 195 18 24 -2 57 -4 72 -4z m-690 -22
c19 -12 23 -25 24 -69 1 -30 5 -97 10 -149 7 -87 6 -97 -12 -119 l-20 -25 -52
38 c-53 39 -101 94 -140 157 -20 34 -61 141 -61 160 0 28 211 34 251 7z"/>
</g>
</svg>
