<?xml version="1.0" standalone="no"?>
<!DOCTYPE svg PUBLIC "-//W3C//DTD SVG 20010904//EN"
 "http://www.w3.org/TR/2001/REC-SVG-20010904/DTD/svg10.dtd">
<svg version="1.0" xmlns="http://www.w3.org/2000/svg"
 width="200.000000pt" height="210.000000pt" viewBox="0 0 200.000000 210.000000"
 preserveAspectRatio="xMidYMid meet">

<g transform="translate(0.000000,210.000000) scale(0.100000,-0.100000)"
fill="#5f8f55" stroke="none">
<path d="M2 1128 l-2 -978 293 -3 292 -2 -292 -3 -293 -2 0 -70 0 -70 580 0
580 0 0 300 0 300 -50 0 -50 0 -3 -297 -2 -298 -3 303 -2 302 60 0 60 0 0
-305 0 -305 415 0 415 0 0 60 0 60 -327 3 -328 2 328 3 327 2 0 985 c0 650 -3
985 -10 985 -6 0 -10 -28 -10 -65 l0 -65 -317 2 -318 3 312 2 313 3 0 60 0 60
-400 0 -400 0 -3 -342 -2 -343 -3 343 -2 342 -200 0 -200 0 -2 -347 -3 -348
-2 343 -3 342 -365 0 -365 0 -2 -62 -2 -63 -6 70 c-4 39 -7 -370 -8 -907z
m1045 460 c-1 -95 -3 -20 -3 167 0 187 2 265 3 173 2 -92 2 -245 0 -340z
m-734 225 l-272 -3 -4 -63 -3 -62 -2 68 -2 67 278 -2 277 -3 -272 -2z m1485 0
c-81 -2 -216 -2 -300 0 -84 1 -18 3 147 3 165 0 234 -2 153 -3z m-1490 -370
l-278 -3 0 -435 0 -435 278 -3 277 -2 -282 -3 -283 -2 0 445 0 445 283 -2 282
-3 -277 -2z m1650 -435 l-3 -423 -2 417 -3 418 -303 3 -302 2 308 3 307 2 -2
-422z m-1720 -311 l77 -3 -82 -2 -83 -2 2 318 3 317 2 -312 3 -312 78 -4z
m275 0 l72 -3 -77 -2 -78 -2 2 318 3 317 2 -312 3 -312 73 -4z m1022 26 c-3
-10 -30 -12 -97 -11 l-93 2 93 3 92 4 2 292 3 292 2 -285 c2 -157 1 -290 -2
-297z m-568 560 l-208 -3 3 -104 c2 -57 0 -102 -4 -99 -5 2 -8 51 -8 109 l0
104 213 -2 212 -3 -208 -2z m200 -150 c-2 -27 -3 -5 -3 47 0 52 1 74 3 48 2
-27 2 -69 0 -95z m-207 -393 l199 0 4 103 3 102 2 -107 2 -108 -210 0 -210 0
2 113 2 112 3 -107 4 -108 199 0z m833 -27 c-23 -2 -64 -2 -90 0 -26 2 -7 3
42 3 50 0 71 -1 48 -3z m-970 -110 l-63 -4 -3 -292 -2 -292 -3 298 -2 297 68
-2 67 -2 -62 -3z m-380 -210 c-78 -2 -208 -2 -290 0 -81 1 -18 3 142 3 160 0
226 -2 148 -3z m1517 -98 l0 -65 -307 2 -308 3 303 2 302 3 0 60 c0 33 2 60 5
60 3 0 5 -29 5 -65z"/>
</g>
</svg>
