<?xml version="1.0" standalone="no"?>
<!DOCTYPE svg PUBLIC "-//W3C//DTD SVG 20010904//EN"
 "http://www.w3.org/TR/2001/REC-SVG-20010904/DTD/svg10.dtd">
<svg version="1.0" xmlns="http://www.w3.org/2000/svg"
 width="300.000000pt" height="300.000000pt" viewBox="0 0 300.000000 300.000000"
 preserveAspectRatio="xMidYMid meet">
<metadata>
Created by potrace 1.16, written by Peter Selinger 2001-2019
</metadata>
<g transform="translate(0.000000,300.000000) scale(0.100000,-0.100000)"
fill="#5f8f55" stroke="none">
<path d="M825 2875 c-307 -57 -584 -330 -672 -664 -22 -81 -26 -125 -30 -281
-5 -171 -3 -195 21 -314 61 -295 181 -522 385 -727 196 -196 411 -306 669
-341 l87 -11 48 -74 47 -74 0 -144 0 -145 70 0 70 0 0 225 0 225 23 4 c12 3
36 7 52 11 17 3 38 8 47 11 12 4 28 -12 57 -58 l41 -63 0 -177 0 -178 70 0 70
0 0 288 0 287 44 24 45 23 101 -36 c86 -31 101 -33 96 -19 -3 10 -15 60 -26
111 l-20 93 22 29 c23 29 24 29 136 29 61 1 112 4 112 7 0 3 -22 43 -50 89
-27 46 -50 89 -50 98 0 10 30 21 110 38 61 13 109 27 108 31 -2 4 -31 36 -65
71 -35 36 -63 70 -63 76 0 16 28 27 123 46 48 10 87 21 87 24 0 4 -29 36 -65
71 -36 35 -65 67 -65 71 0 4 39 19 88 33 48 15 95 30 105 34 15 6 5 21 -64 95
-67 72 -77 88 -62 93 159 49 363 236 363 334 0 12 -10 25 -25 32 -38 17 -131
-34 -258 -143 -110 -92 -137 -103 -137 -55 0 26 4 29 206 194 116 95 156 195
98 241 -33 26 -68 27 -92 4 -9 -10 -58 -51 -107 -92 -50 -41 -122 -105 -161
-143 -76 -75 -106 -85 -112 -37 -2 21 14 45 84 120 133 145 183 228 184 304 0
53 -23 85 -61 85 -71 0 -205 -202 -340 -513 -95 -219 -320 -400 -595 -479 -69
-20 -102 -23 -259 -22 -164 0 -188 2 -270 25 -182 53 -322 135 -435 256 -133
143 -190 307 -143 415 29 64 77 113 141 145 51 25 68 28 157 28 92 0 105 -2
165 -32 129 -63 241 -194 311 -364 18 -43 36 -76 40 -72 3 5 17 40 29 78 12
39 25 73 29 77 3 4 39 -22 80 -58 41 -35 77 -64 81 -64 10 0 20 116 20 220 0
116 -21 205 -70 298 -119 229 -355 337 -625 287z m446 -178 c98 -65 85 -208
-23 -252 -54 -21 -98 -13 -143 26 -40 35 -59 87 -51 134 8 39 49 93 80 105 41
17 102 11 137 -13z m-870 -737 c10 -6 25 -23 33 -38 l14 -28 -58 1 c-49 0 -63
-4 -85 -25 -34 -32 -55 -72 -55 -105 0 -14 -4 -25 -9 -25 -19 0 -41 45 -41 83
0 80 62 147 136 147 25 0 54 -5 65 -10z m220 -139 c31 -32 39 -57 13 -47 -8 3
-36 1 -62 -6 -35 -9 -61 -25 -103 -67 -60 -60 -89 -123 -89 -193 0 -44 -8 -47
-40 -13 -31 33 -38 107 -16 172 48 145 217 233 297 154z m1669 -26 c24 -13 24
-14 5 -20 -89 -27 -125 -74 -125 -161 0 -38 6 -61 25 -88 21 -31 22 -36 7 -36
-34 1 -100 38 -126 72 -83 109 -5 248 139 248 28 -1 61 -7 75 -15z m-1490 -70
c25 -13 50 -42 50 -58 0 -2 -19 -8 -42 -11 -153 -25 -316 -255 -293 -413 7
-48 6 -49 -36 -27 -108 55 -66 288 78 432 84 84 174 113 243 77z m200 -110
c38 -19 58 -54 39 -66 -8 -5 -23 -9 -34 -9 -33 0 -127 -60 -181 -116 -121
-124 -197 -317 -174 -442 6 -33 4 -42 -7 -42 -31 0 -74 33 -94 72 -19 37 -21
53 -16 128 6 101 34 178 102 280 108 163 265 247 365 195z m600 -121 c368 -5
460 -13 590 -53 36 -11 74 -27 85 -35 23 -16 23 -14 -78 -186 -147 -250 -215
-330 -359 -426 -131 -88 -262 -129 -413 -128 -149 0 -263 41 -429 154 -225
153 -295 259 -177 268 37 3 58 -6 171 -72 150 -89 265 -143 384 -182 82 -27
89 -27 129 -14 34 12 42 20 42 39 0 20 -8 27 -45 39 -109 34 -198 71 -385 159
-235 110 -228 106 -233 121 -5 16 72 52 126 59 53 6 165 -30 490 -156 171 -67
186 -71 223 -61 34 9 39 15 39 39 0 27 -5 31 -137 81 -267 102 -482 163 -548
157 -44 -4 -25 20 40 52 84 42 130 47 248 31 132 -18 262 -53 404 -111 101
-41 128 -49 151 -41 102 34 -41 94 -418 177 -91 20 -200 47 -242 61 -86 28
-116 52 -52 40 21 -4 199 -9 394 -12z"/>
<path d="M1373 2030 c-92 -56 -82 -200 16 -245 73 -32 145 -6 182 67 62 122
-80 250 -198 178z"/>
</g>
</svg>
